<?xml version="1.0" encoding="UTF-8"?>
<svg xmlns="http://www.w3.org/2000/svg" xmlns:xlink="http://www.w3.org/1999/xlink" width="438.46pt" height="601.99pt" viewBox="0 0 438.46 601.99" version="1.1">
<defs>
<clipPath id="clip1">
  <path d="M 0 0 L 438.460938 0 L 438.460938 601.988281 L 0 601.988281 Z M 0 0 "/>
</clipPath>
</defs>
<g id="surface1">
<path style=" stroke:none;fill-rule:nonzero;fill:rgb(14.099121%,69.398499%,88.999939%);fill-opacity:1;" d="M 9.804688 299.886719 C 9.804688 299.886719 69.003906 209.605469 131.164063 219.964844 C 193.324219 230.324219 325.785156 270.285156 372.40625 246.605469 C 419.023438 222.925781 428.644531 211.824219 428.644531 211.824219 C 428.644531 211.824219 430.125 320.605469 430.125 366.484375 C 430.125 412.363281 408.664063 587.746094 224.40625 589.964844 C 40.144531 592.183594 13.503906 426.425781 11.285156 394.605469 C 9.0625 362.785156 9.804688 299.886719 9.804688 299.886719 "/>
<path style=" stroke:none;fill-rule:nonzero;fill:rgb(61.999512%,30.198669%,26.699829%);fill-opacity:1;" d="M 428.644531 40.886719 C 428.644531 40.886719 393.863281 75.664063 356.863281 75.664063 C 319.863281 75.664063 247.34375 23.863281 213.304688 17.945313 C 179.265625 12.023438 105.265625 3.886719 58.644531 33.484375 C 12.023438 63.085938 9.804688 65.304688 9.804688 65.304688 L 12.765625 217.003906 C 12.765625 217.003906 113.40625 152.625 213.304688 202.945313 C 313.203125 253.265625 345.765625 264.363281 387.945313 240.683594 C 430.125 217.003906 428.644531 211.824219 428.644531 211.824219 L 428.644531 40.886719 "/>
<path style=" stroke:none;fill-rule:nonzero;fill:rgb(82.699585%,67.098999%,23.899841%);fill-opacity:1;" d="M 293.113281 93.957031 C 292.296875 97.703125 290.945313 102.757813 288.742188 108.714844 C 283.144531 123.855469 271.371094 139.636719 262.1875 148.5625 C 257.429688 153.183594 252.0625 155.992188 247.0625 156.609375 L 247.007813 156.691406 C 246.132813 158.03125 244.59375 161.371094 246.144531 166.796875 C 248.851563 176.261719 257.238281 176.914063 259.710938 176.894531 L 260.039063 176.878906 C 282.1875 166.269531 297.519531 143.628906 297.519531 117.476563 C 297.519531 109.15625 295.972656 101.195313 293.144531 93.863281 L 293.113281 93.957031 "/>
<path style=" stroke:none;fill-rule:nonzero;fill:rgb(82.699585%,67.098999%,23.899841%);fill-opacity:1;" d="M 276.746094 69.628906 C 275.671875 75.175781 272.082031 86.46875 260.125 101.214844 C 248.996094 114.9375 237.140625 118.382813 233.242188 119.175781 C 232.769531 121.039063 231.90625 125.136719 231.90625 130.269531 C 231.90625 134.476563 232.488281 139.367188 234.347656 144.257813 C 236.136719 148.96875 238.933594 151.777344 242.65625 152.605469 C 247.648438 153.714844 253.9375 151.160156 259.480469 145.773438 C 268.351563 137.15625 279.714844 121.941406 285.097656 107.367188 C 288.664063 97.714844 289.917969 90.441406 290.296875 87.695313 L 290.328125 87.570313 C 286.859375 80.796875 282.253906 74.699219 276.757813 69.535156 L 276.746094 69.628906 "/>
<path style=" stroke:none;fill-rule:nonzero;fill:rgb(82.699585%,67.098999%,23.899841%);fill-opacity:1;" d="M 180.621094 76.046875 C 184.277344 74.882813 189.328125 73.523438 195.589844 72.453125 C 211.503906 69.726563 231.054688 72.03125 243.375 75.527344 C 249.757813 77.335938 254.871094 80.578125 257.90625 84.601563 L 258.007813 84.609375 C 259.605469 84.695313 263.265625 84.355469 267.1875 80.300781 C 274.03125 73.226563 270.402344 65.636719 269.152344 63.507813 L 268.972656 63.226563 C 248.710938 49.351563 221.4375 47.390625 198.785156 60.46875 C 191.582031 64.628906 185.464844 69.953125 180.527344 76.066406 L 180.621094 76.046875 "/>
<path style=" stroke:none;fill-rule:nonzero;fill:rgb(82.699585%,67.098999%,23.899841%);fill-opacity:1;" d="M 167.738281 102.386719 C 173.078125 100.542969 184.652344 98.003906 203.402344 100.984375 C 220.851563 103.761719 229.761719 112.308594 232.398438 115.285156 C 234.25 114.761719 238.230469 113.464844 242.675781 110.898438 C 246.320313 108.792969 250.261719 105.84375 253.570313 101.789063 C 256.753906 97.882813 257.789063 94.054688 256.640625 90.417969 C 255.105469 85.539063 249.75 81.371094 242.3125 79.261719 C 230.417969 75.890625 211.558594 73.660156 196.242188 76.28125 C 186.101563 78.019531 179.175781 80.570313 176.609375 81.613281 L 176.484375 81.652344 C 172.355469 88.042969 169.378906 95.082031 167.652344 102.421875 L 167.738281 102.386719 "/>
<path style=" stroke:none;fill-rule:nonzero;fill:rgb(82.699585%,67.098999%,23.899841%);fill-opacity:1;" d="M 221.355469 182.421875 C 218.523438 179.839844 214.820313 176.144531 210.761719 171.257813 C 200.445313 158.839844 192.664063 140.753906 189.53125 128.335938 C 187.90625 121.90625 188.160156 115.851563 190.125 111.214844 L 190.078125 111.125 C 189.355469 109.695313 187.234375 106.695313 181.757813 105.324219 C 172.210938 102.9375 167.453125 109.875 166.234375 112.023438 L 166.082031 112.316406 C 164.195313 136.804688 176.136719 161.402344 198.785156 174.480469 C 205.988281 178.636719 213.660156 181.277344 221.425781 182.492188 L 221.355469 182.421875 "/>
<path style=" stroke:none;fill-rule:nonzero;fill:rgb(82.699585%,67.098999%,23.899841%);fill-opacity:1;" d="M 250.609375 180.410156 C 246.34375 176.707031 238.359375 167.949219 231.566406 150.222656 C 225.242188 133.722656 228.191406 121.734375 229.453125 117.960938 C 228.074219 116.621094 224.960938 113.824219 220.511719 111.257813 C 216.871094 109.152344 212.34375 107.214844 207.179688 106.378906 C 202.203125 105.570313 198.371094 106.589844 195.792969 109.402344 C 192.339844 113.171875 191.40625 119.894531 193.296875 127.386719 C 196.324219 139.378906 203.824219 156.824219 213.75 168.773438 C 220.324219 176.691406 226 181.410156 228.1875 183.113281 L 228.28125 183.199219 C 235.882813 183.585938 243.464844 182.640625 250.683594 180.46875 L 250.609375 180.410156 "/>
<path style=" stroke:none;fill-rule:nonzero;fill:rgb(13.699341%,12.199402%,12.5%);fill-opacity:1;" d="M 293.042969 92.804688 C 292.554688 92.839844 292.132813 93.242188 292.027344 93.71875 C 291 98.425781 289.546875 103.339844 287.703125 108.328125 C 282.164063 123.308594 270.511719 138.929688 261.414063 147.765625 C 256.886719 152.164063 251.742188 154.914063 246.925781 155.507813 C 246.601563 155.546875 246.253906 155.8125 246.078125 156.085938 C 245 157.734375 243.4375 161.363281 245.078125 167.101563 C 247.992188 177.296875 257.019531 178.023438 259.714844 178.003906 L 260.089844 177.988281 C 260.238281 177.980469 260.382813 177.945313 260.519531 177.878906 C 283.671875 166.789063 298.632813 143.078125 298.632813 117.476563 C 298.632813 109.203125 297.132813 101.125 294.179688 93.464844 C 294.003906 93.007813 293.53125 92.765625 293.042969 92.804688 M 262.964844 149.355469 C 272.238281 140.347656 284.128906 124.402344 289.785156 109.097656 C 291.207031 105.25 292.324219 101.472656 293.277344 97.765625 C 295.316406 104.121094 296.410156 110.722656 296.410156 117.476563 C 296.410156 142.160156 282.023438 165.019531 259.742188 175.78125 C 259.710938 175.78125 259.65625 175.785156 259.65625 175.785156 C 257.398438 175.800781 249.695313 175.183594 247.214844 166.492188 C 246.765625 164.929688 246.597656 163.558594 246.597656 162.378906 C 246.597656 159.980469 247.285156 158.414063 247.777344 157.578125 C 252.898438 156.789063 258.265625 153.921875 262.964844 149.355469 "/>
<path style=" stroke:none;fill-rule:nonzero;fill:rgb(13.699341%,12.199402%,12.5%);fill-opacity:1;" d="M 276.410156 68.523438 C 276.027344 68.648438 275.734375 69.019531 275.65625 69.414063 C 274.621094 74.757813 271.113281 85.902344 259.261719 100.515625 C 248.25 114.097656 236.394531 117.402344 233.019531 118.089844 C 232.605469 118.175781 232.269531 118.488281 232.167969 118.902344 C 231.65625 120.921875 230.796875 125.078125 230.796875 130.269531 C 230.796875 135.421875 231.640625 140.261719 233.308594 144.652344 C 235.242188 149.734375 238.304688 152.777344 242.417969 153.6875 C 247.773438 154.878906 254.441406 152.21875 260.257813 146.570313 C 269.214844 137.867188 280.691406 122.488281 286.140625 107.75 C 289.753906 97.972656 291.019531 90.574219 291.398438 87.847656 C 291.457031 87.59375 291.433594 87.296875 291.316406 87.0625 C 287.800781 80.203125 283.160156 74.03125 277.519531 68.726563 C 277.226563 68.449219 276.796875 68.402344 276.410156 68.523438 M 260.988281 101.914063 C 271.890625 88.464844 275.90625 77.832031 277.398438 71.777344 C 282.121094 76.5 286.097656 81.851563 289.167969 87.773438 C 288.738281 90.71875 287.480469 97.722656 284.058594 106.980469 C 278.730469 121.394531 267.488281 136.449219 258.710938 144.976563 C 253.433594 150.101563 247.523438 152.546875 242.898438 151.523438 C 239.5625 150.78125 237.035156 148.203125 235.382813 143.863281 C 233.8125 139.726563 233.015625 135.152344 233.015625 130.269531 C 233.015625 125.761719 233.683594 122.164063 234.171875 120.09375 C 239.121094 118.964844 250.308594 115.085938 260.988281 101.914063 "/>
<path style=" stroke:none;fill-rule:nonzero;fill:rgb(13.699341%,12.199402%,12.5%);fill-opacity:1;" d="M 198.230469 59.507813 C 191.070313 63.644531 184.820313 68.980469 179.664063 75.371094 C 179.355469 75.75 179.382813 76.277344 179.660156 76.683594 C 179.9375 77.089844 180.492188 77.253906 180.960938 77.101563 C 185.550781 75.640625 190.535156 74.445313 195.773438 73.546875 C 211.519531 70.851563 230.875 73.136719 243.070313 76.59375 C 249.144531 78.316406 254.097656 81.398438 257.019531 85.269531 C 257.21875 85.53125 257.621094 85.699219 257.945313 85.71875 C 259.914063 85.824219 263.835938 85.363281 267.988281 81.070313 C 275.359375 73.453125 271.476563 65.269531 270.109375 62.945313 L 269.910156 62.628906 C 269.828125 62.503906 269.722656 62.398438 269.601563 62.3125 C 248.421875 47.804688 220.40625 46.707031 198.230469 59.507813 M 199.339844 61.429688 C 220.722656 49.085938 247.714844 50.117188 268.171875 64.035156 C 268.1875 64.0625 268.21875 64.105469 268.21875 64.105469 C 268.84375 65.171875 270.117188 67.738281 270.117188 70.910156 C 270.117188 73.539063 269.238281 76.585938 266.390625 79.527344 C 263.003906 83.03125 259.867188 83.511719 258.398438 83.507813 C 255.15625 79.464844 249.984375 76.246094 243.675781 74.457031 C 231.238281 70.929688 211.484375 68.605469 195.398438 71.359375 C 191.359375 72.050781 187.527344 72.972656 183.839844 74 C 188.324219 69.054688 193.492188 64.804688 199.339844 61.429688 "/>
<path style=" stroke:none;fill-rule:nonzero;fill:rgb(13.699341%,12.199402%,12.5%);fill-opacity:1;" d="M 196.058594 75.1875 C 185.785156 76.945313 178.742188 79.550781 176.191406 80.585938 C 175.941406 80.664063 175.695313 80.832031 175.554688 81.050781 C 171.367188 87.523438 168.34375 94.628906 166.570313 102.164063 C 166.476563 102.558594 166.648438 102.953125 166.949219 103.226563 C 167.25 103.496094 167.71875 103.566406 168.097656 103.433594 C 173.242188 101.660156 184.648438 99.128906 203.230469 102.082031 C 220.496094 104.828125 229.285156 113.445313 231.570313 116.023438 C 231.851563 116.339844 232.289063 116.46875 232.699219 116.355469 C 234.703125 115.789063 238.734375 114.453125 243.230469 111.859375 C 247.695313 109.28125 251.460938 106.128906 254.429688 102.492188 C 257.867188 98.277344 258.964844 94.101563 257.699219 90.085938 C 256.050781 84.847656 250.414063 80.40625 242.617188 78.195313 C 230.601563 74.789063 211.542969 72.535156 196.058594 75.1875 M 196.433594 77.378906 C 211.574219 74.78125 230.234375 76.992188 242.011719 80.332031 C 249.085938 82.335938 254.160156 86.230469 255.582031 90.75 C 255.847656 91.59375 255.980469 92.445313 255.980469 93.316406 C 255.980469 95.8125 254.886719 98.417969 252.710938 101.089844 C 249.910156 104.515625 246.351563 107.492188 242.121094 109.9375 C 238.21875 112.191406 234.765625 113.410156 232.730469 114.023438 C 229.277344 110.304688 220.320313 102.550781 203.578125 99.890625 C 186.496094 97.175781 175.269531 99.007813 169.273438 100.742188 C 171.003906 94.289063 173.652344 88.175781 177.242188 82.554688 C 180.003906 81.453125 186.703125 79.039063 196.433594 77.378906 "/>
<path style=" stroke:none;fill-rule:nonzero;fill:rgb(13.699341%,12.199402%,12.5%);fill-opacity:1;" d="M 165.269531 111.472656 L 165.097656 111.804688 C 165.027344 111.9375 164.984375 112.082031 164.976563 112.230469 C 163.003906 137.824219 176.058594 162.636719 198.230469 175.441406 C 205.394531 179.574219 213.140625 182.316406 221.253906 183.589844 C 221.734375 183.664063 222.179688 183.378906 222.390625 182.9375 C 222.601563 182.496094 222.46875 181.929688 222.105469 181.601563 C 218.546875 178.359375 215.019531 174.640625 211.617188 170.546875 C 201.410156 158.261719 193.710938 140.359375 190.605469 128.066406 C 189.0625 121.945313 189.253906 116.113281 191.148438 111.648438 C 191.273438 111.347656 191.21875 110.914063 191.070313 110.621094 C 190.179688 108.863281 187.820313 105.699219 182.027344 104.246094 C 171.742188 101.675781 166.601563 109.128906 165.269531 111.472656 M 167.21875 112.53125 C 168.335938 110.566406 172.722656 104.207031 181.488281 106.402344 C 186.257813 107.59375 188.214844 110.085938 188.933594 111.347656 C 187.914063 113.96875 187.355469 116.929688 187.355469 120.136719 C 187.355469 122.84375 187.722656 125.699219 188.453125 128.609375 C 191.621094 141.144531 199.480469 159.414063 209.910156 171.96875 C 212.53125 175.125 215.246094 177.980469 217.976563 180.65625 C 211.453125 179.246094 205.1875 176.894531 199.339844 173.519531 C 179.328125 161.964844 167 140.289063 167 117.324219 C 167 115.757813 167.0625 114.183594 167.179688 112.609375 C 167.195313 112.578125 167.21875 112.53125 167.21875 112.53125 "/>
<path style=" stroke:none;fill-rule:nonzero;fill:rgb(13.699341%,12.199402%,12.5%);fill-opacity:1;" d="M 194.976563 108.652344 C 191.265625 112.695313 190.238281 119.800781 192.222656 127.65625 C 195.277344 139.769531 202.855469 157.398438 212.898438 169.484375 C 219.5625 177.507813 225.335938 182.300781 227.507813 183.988281 C 227.699219 184.171875 227.964844 184.296875 228.226563 184.308594 C 235.925781 184.699219 243.589844 183.761719 251.003906 181.53125 C 251.390625 181.414063 251.648438 181.066406 251.730469 180.671875 C 251.816406 180.277344 251.644531 179.839844 251.339844 179.574219 C 247.230469 176.003906 239.335938 167.394531 232.601563 149.824219 C 226.347656 133.496094 229.414063 121.578125 230.503906 118.3125 C 230.640625 117.910156 230.53125 117.464844 230.226563 117.164063 C 228.734375 115.714844 225.5625 112.890625 221.066406 110.296875 C 216.605469 107.71875 211.992188 106.03125 207.355469 105.28125 C 201.988281 104.410156 197.820313 105.546875 194.976563 108.652344 M 214.605469 168.066406 C 204.785156 156.246094 197.371094 138.980469 194.375 127.113281 C 193.746094 124.636719 193.441406 122.253906 193.441406 120.050781 C 193.441406 115.921875 194.523438 112.429688 196.613281 110.152344 C 198.921875 107.632813 202.417969 106.730469 207.003906 107.472656 C 211.371094 108.179688 215.730469 109.777344 219.957031 112.21875 C 223.859375 114.472656 226.644531 116.851563 228.195313 118.308594 C 227.449219 120.71875 226.527344 124.742188 226.527344 130.210938 C 226.527344 135.738281 227.476563 142.65625 230.527344 150.621094 C 236.730469 166.800781 243.9375 175.59375 248.4375 179.910156 C 241.980469 181.640625 235.355469 182.402344 228.695313 182.101563 C 226.355469 180.257813 220.917969 175.664063 214.605469 168.066406 "/>
<path style=" stroke:none;fill-rule:nonzero;fill:rgb(82.699585%,67.098999%,23.899841%);fill-opacity:1;" d="M 419.410156 34.582031 C 391.046875 60.273438 370.320313 65.871094 357.933594 66.046875 C 333.445313 66.386719 316.746094 57.308594 286.4375 40.835938 L 266.28125 30.007813 C 236.867188 14.527344 207.628906 1.667969 147.542969 1.109375 C 66.839844 0.359375 6.746094 56.40625 4.230469 58.789063 L 1.109375 61.746094 L 1.109375 376.476563 C 1.109375 437.433594 23.839844 494.160156 65.105469 536.203125 C 106.046875 577.910156 160.78125 600.878906 219.226563 600.878906 C 277.667969 600.878906 332.402344 577.910156 373.34375 536.203125 C 414.613281 494.160156 437.339844 437.433594 437.339844 376.476563 L 437.347656 39.128906 C 437.339844 30.246094 427.289063 27.816406 419.410156 34.582031 M 21.089844 202.402344 C 21.089844 135.714844 21.089844 74.476563 21.089844 70.5625 C 33.847656 59.75 84.539063 20.507813 147.355469 21.089844 C 203.066406 21.605469 228.9375 32.933594 256.976563 47.6875 L 276.894531 58.390625 C 307.96875 75.277344 328.496094 86.433594 358.210938 86.023438 C 371.472656 85.839844 391.746094 81.164063 417.363281 62.109375 C 417.363281 78.523438 417.363281 141.507813 417.363281 206.828125 L 417.320313 206.894531 C 408.960938 217.46875 385.492188 241.070313 343.082031 240.6875 C 311.082031 240.394531 296.351563 235.351563 244.5625 206.949219 C 193.832031 179.132813 167.195313 165.78125 116.445313 166.316406 C 78.929688 166.710938 42.023438 187.894531 21.199219 202.308594 L 21.089844 202.402344 M 21.089844 311.5625 C 28.53125 294.664063 43.628906 271.902344 74.15625 252.554688 C 104.46875 233.34375 141.609375 233.34375 167.226563 238.039063 C 184.644531 241.234375 216.746094 251.277344 216.746094 251.277344 C 216.746094 251.277344 178.324219 259.816406 142.890625 280.734375 C 100.675781 305.652344 72.023438 335.808594 59.214844 377.21875 C 50.71875 404.691406 49.027344 476.683594 90.804688 515.328125 C 124.875 546.847656 169.902344 566.484375 219.226563 566.484375 C 283.644531 566.484375 340.410156 533.335938 374.429688 481.910156 C 396.453125 448.625 391.644531 421.613281 387.203125 407.554688 C 382.996094 394.230469 372.773438 368.703125 339.84375 352.796875 C 317.875 342.179688 298.898438 339.179688 285.085938 335.035156 C 274.839844 331.960938 264.199219 329.371094 260.480469 322.269531 C 256.410156 314.5 258.628906 306.730469 265.84375 303.03125 C 269.851563 300.972656 278.121094 299.667969 288.414063 301.550781 C 303.585938 304.324219 310.800781 313.574219 316.226563 311.84375 C 322.214844 309.933594 326.058594 292.652344 312.238281 283.261719 C 293.410156 270.46875 260.664063 272.691406 243.273438 284.34375 C 225.8125 296.050781 218.148438 315.488281 224.125 336.835938 C 228.359375 351.960938 239.125 362.359375 263.710938 371.238281 C 285.511719 379.113281 309.480469 387.585938 315.425781 403.855469 C 322.453125 423.09375 309.875 436.785156 296.925781 446.035156 C 278.71875 459.039063 253.242188 463.988281 232.546875 463.054688 C 191.472656 461.203125 173.792969 450.25 154.046875 428.824219 C 136.003906 409.246094 131.25 371.023438 144.597656 345.199219 C 164.238281 307.203125 191.1875 287.0625 223.578125 273.476563 C 250.046875 262.375 261.148438 261.523438 261.148438 261.523438 C 261.148438 261.523438 288.472656 267.925781 314.941406 267.925781 C 350.4375 267.925781 368.519531 262.328125 397.378906 248.453125 C 405.441406 244.578125 412.527344 239.257813 417.273438 235.253906 L 417.363281 235.167969 C 417.359375 308.027344 417.359375 376.476563 417.359375 376.476563 C 417.359375 432.167969 396.664063 483.921875 359.085938 522.207031 C 321.929688 560.054688 272.261719 580.898438 219.226563 580.898438 C 166.1875 580.898438 116.519531 560.054688 79.367188 522.207031 C 41.785156 483.921875 21.089844 432.167969 21.089844 376.476563 L 21.089844 311.5625 "/>
<g clip-path="url(#clip1)" clip-rule="nonzero">
<path style=" stroke:none;fill-rule:nonzero;fill:rgb(13.699341%,12.199402%,12.5%);fill-opacity:1;" d="M 3.464844 57.984375 L 0.347656 60.941406 C 0.125 61.148438 0 61.441406 0 61.746094 L 0 376.476563 C 0 437.726563 22.839844 494.730469 64.316406 536.980469 C 105.46875 578.902344 160.480469 601.988281 219.226563 601.988281 C 277.96875 601.988281 332.984375 578.902344 374.136719 536.980469 C 415.609375 494.730469 438.449219 437.726563 438.449219 376.476563 L 438.457031 39.128906 C 438.453125 35.148438 436.574219 32.007813 433.304688 30.507813 C 429.007813 28.535156 423.273438 29.804688 418.6875 33.738281 C 418.679688 33.746094 418.675781 33.753906 418.664063 33.761719 C 390.558594 59.21875 370.113281 64.765625 357.914063 64.933594 C 333.722656 65.269531 317.113281 56.246094 286.96875 39.863281 L 266.804688 29.03125 C 237.253906 13.476563 207.886719 0.558594 147.550781 0 C 66.414063 -0.753906 6 55.585938 3.464844 57.984375 M 4.992188 59.597656 C 7.496094 57.222656 67.28125 1.476563 147.53125 2.21875 C 207.371094 2.773438 236.480469 15.578125 265.765625 30.992188 L 285.910156 41.8125 C 316.382813 58.375 333.171875 67.496094 357.945313 67.152344 C 370.527344 66.980469 391.535156 61.328125 420.15625 35.40625 C 420.148438 35.410156 420.144531 35.417969 420.136719 35.425781 C 424.0625 32.050781 428.867188 30.914063 432.378906 32.523438 C 434.863281 33.664063 436.234375 36.011719 436.234375 39.128906 L 436.230469 376.476563 C 436.230469 437.144531 413.613281 493.589844 372.550781 535.425781 C 331.820313 576.917969 277.367188 599.769531 219.226563 599.769531 C 161.082031 599.769531 106.628906 576.917969 65.898438 535.425781 C 24.835938 493.589844 2.21875 437.144531 2.21875 376.476563 C 2.21875 376.476563 2.21875 63.175781 2.21875 62.222656 C 2.765625 61.703125 4.992188 59.597656 4.992188 59.597656 "/>
</g>
<path style=" stroke:none;fill-rule:nonzero;fill:rgb(13.699341%,12.199402%,12.5%);fill-opacity:1;" d="M 20.371094 69.714844 C 20.125 69.925781 19.980469 70.234375 19.980469 70.5625 L 19.980469 202.402344 C 19.980469 202.832031 20.230469 203.222656 20.617188 203.40625 C 21.011719 203.589844 21.46875 203.53125 21.800781 203.253906 L 21.910156 203.160156 C 40.898438 190.023438 78.539063 167.824219 116.457031 167.425781 C 166.929688 166.894531 193.472656 180.199219 244.03125 207.925781 C 296.023438 236.4375 310.835938 241.503906 343.070313 241.796875 C 386.144531 242.1875 409.953125 218 418.191406 207.582031 C 418.347656 207.386719 418.472656 207.078125 418.472656 206.828125 L 418.476563 62.109375 C 418.476563 61.6875 418.238281 61.304688 417.863281 61.117188 C 417.488281 60.925781 417.039063 60.96875 416.703125 61.21875 C 390.796875 80.492188 370.585938 84.738281 358.195313 84.910156 C 328.773438 85.320313 308.347656 74.21875 277.425781 57.417969 L 257.5 46.710938 C 229.320313 31.878906 203.324219 20.496094 147.367188 19.980469 C 84.679688 19.398438 34.316406 57.898438 20.371094 69.714844 M 147.347656 22.199219 C 202.808594 22.710938 228.558594 33.984375 256.457031 48.671875 L 276.371094 59.367188 C 307.59375 76.339844 328.222656 87.550781 358.222656 87.132813 C 370.65625 86.960938 390.722656 82.78125 416.253906 64.269531 C 416.253906 68.445313 416.253906 205.707031 416.253906 206.445313 C 408.054688 216.726563 384.875 239.957031 343.089844 239.574219 C 311.328125 239.285156 296.675781 234.261719 245.097656 205.976563 C 194.195313 178.0625 167.460938 164.667969 116.433594 165.207031 C 78.949219 165.601563 41.921875 186.851563 22.199219 200.289063 C 22.199219 196.214844 22.199219 72.101563 22.199219 71.082031 C 36.464844 59.066406 85.929688 21.628906 147.347656 22.199219 "/>
<path style=" stroke:none;fill-rule:nonzero;fill:rgb(13.699341%,12.199402%,12.5%);fill-opacity:1;" d="M 416.558594 234.402344 C 412.035156 238.21875 404.953125 243.582031 396.898438 247.453125 C 368.5 261.109375 350.835938 266.816406 314.941406 266.816406 C 288.910156 266.816406 261.675781 260.507813 261.402344 260.441406 C 261.289063 260.414063 261.175781 260.40625 261.0625 260.414063 C 260.601563 260.449219 249.480469 261.410156 223.148438 272.453125 C 185.886719 288.078125 161.355469 310.355469 143.613281 344.6875 C 130.246094 370.546875 134.652344 409.421875 153.230469 429.578125 C 173.011719 451.039063 190.699219 462.28125 232.496094 464.164063 C 251.121094 465.003906 277.996094 460.917969 297.570313 446.9375 C 316.128906 433.683594 322.308594 419.464844 316.46875 403.472656 C 310.421875 386.925781 286.25 378.195313 264.925781 370.496094 L 264.089844 370.195313 C 240.800781 361.785156 229.53125 352.03125 225.191406 336.535156 C 219.476563 316.109375 226.464844 296.945313 243.894531 285.265625 C 260.367188 274.226563 292.828125 271.417969 311.613281 284.183594 C 321.316406 290.773438 320.765625 300.285156 320.363281 303.046875 C 319.800781 306.945313 317.960938 310.128906 315.890625 310.785156 C 313.757813 311.46875 310.964844 309.90625 307.101563 307.746094 C 302.722656 305.296875 296.722656 301.941406 288.613281 300.457031 C 277.632813 298.449219 269.210938 300.054688 265.339844 302.042969 C 261.667969 303.925781 259.128906 306.8125 257.988281 310.394531 C 256.777344 314.214844 257.3125 318.617188 259.496094 322.785156 C 263.121094 329.703125 272.382813 332.4375 282.1875 335.332031 L 284.765625 336.097656 C 288.425781 337.195313 292.476563 338.222656 296.757813 339.308594 C 308.574219 342.300781 323.277344 346.023438 339.363281 353.796875 C 374.410156 370.730469 383.242188 398.699219 386.144531 407.890625 C 393.847656 432.28125 389.597656 456.980469 373.503906 481.300781 C 338.675781 533.945313 281 565.375 219.226563 565.375 C 172.351563 565.375 127.011719 547.308594 91.558594 514.511719 C 51.09375 477.078125 51.214844 406.835938 60.273438 377.546875 C 72.34375 338.523438 98.773438 308.066406 143.453125 281.691406 C 178.320313 261.109375 216.605469 252.445313 216.988281 252.359375 C 217.480469 252.25 217.835938 251.824219 217.855469 251.324219 C 217.878906 250.820313 217.558594 250.367188 217.078125 250.21875 C 216.757813 250.117188 184.714844 240.117188 167.425781 236.949219 C 150.933594 233.925781 108.769531 229.300781 73.5625 251.617188 C 42.277344 271.445313 27.207031 294.917969 20.074219 311.113281 C 20.011719 311.253906 19.980469 311.40625 19.980469 311.5625 L 19.980469 376.476563 C 19.980469 432.460938 40.789063 484.492188 78.574219 522.984375 C 115.9375 561.046875 165.886719 582.011719 219.226563 582.011719 C 272.5625 582.011719 322.511719 561.046875 359.875 522.984375 C 397.660156 484.492188 418.46875 432.460938 418.46875 376.476563 L 418.472656 235.167969 C 418.472656 234.738281 418.175781 234.386719 417.785156 234.203125 C 417.394531 234.023438 416.886719 234.125 416.558594 234.402344 M 74.75 253.492188 C 109.296875 231.597656 150.789063 236.15625 167.023438 239.132813 C 180.664063 241.632813 203.589844 248.425781 212.589844 251.160156 C 201.878906 253.941406 170.96875 262.871094 142.324219 279.777344 C 97.140625 306.449219 70.394531 337.308594 58.152344 376.890625 C 55.191406 386.472656 53.171875 400.367188 53.171875 416.082031 C 53.171875 449.171875 62.121094 490.308594 90.050781 516.140625 C 125.914063 549.320313 171.789063 567.59375 219.226563 567.59375 C 281.746094 567.59375 340.113281 535.792969 375.355469 482.523438 C 391.835938 457.617188 396.179688 432.28125 388.265625 407.21875 C 380.171875 381.601563 364.492188 363.472656 340.328125 351.796875 C 324.042969 343.925781 309.21875 340.171875 297.304688 337.15625 C 293.042969 336.074219 289.019531 335.054688 285.402344 333.972656 L 282.816406 333.203125 C 273.476563 330.445313 264.652344 327.84375 261.464844 321.753906 C 259.527344 318.0625 259.058594 314.367188 260.105469 311.066406 C 261.058594 308.0625 263.21875 305.625 266.351563 304.015625 C 269.914063 302.191406 277.777344 300.734375 288.214844 302.640625 C 295.960938 304.058594 301.535156 307.175781 306.015625 309.683594 C 310.371094 312.117188 313.515625 313.875 316.5625 312.902344 C 319.503906 311.964844 321.855469 308.222656 322.5625 303.363281 C 323.007813 300.285156 323.632813 289.660156 312.863281 282.34375 C 292.789063 268.707031 259.753906 271.964844 242.65625 283.421875 C 224.394531 295.660156 217.066406 315.742188 223.054688 337.132813 C 227.613281 353.414063 239.28125 363.597656 263.332031 372.28125 L 264.171875 372.585938 C 285.039063 380.121094 308.691406 388.660156 314.382813 404.234375 C 319.835938 419.160156 313.910156 432.535156 296.28125 445.132813 C 277.167969 458.78125 250.851563 462.769531 232.59375 461.945313 C 191.574219 460.097656 174.230469 449.089844 154.863281 428.074219 C 143.917969 416.199219 138.054688 397.605469 138.054688 379.210938 C 138.054688 367.339844 140.496094 355.554688 145.585938 345.707031 C 163.074219 311.871094 187.261719 289.910156 224.007813 274.5 C 248.285156 264.320313 259.648438 262.804688 261.078125 262.644531 C 262.980469 263.082031 289.476563 269.035156 314.941406 269.035156 C 351.039063 269.035156 369.695313 262.996094 397.859375 249.457031 C 405.160156 245.945313 411.652344 241.265625 416.253906 237.535156 C 416.253906 242.105469 416.25 376.476563 416.25 376.476563 C 416.25 431.875 395.664063 483.355469 358.289063 521.429688 C 321.347656 559.0625 271.960938 579.789063 219.226563 579.789063 C 166.488281 579.789063 117.101563 559.0625 80.15625 521.429688 C 42.78125 483.355469 22.199219 431.875 22.199219 376.476563 C 22.199219 376.476563 22.199219 312.285156 22.199219 311.804688 C 29.246094 295.894531 44.066406 272.941406 74.75 253.492188 "/>
</g>
</svg>
